<svg id="Layer_1" data-name="Layer 1" xmlns="http://www.w3.org/2000/svg" viewBox="0 0 618.32 129.32"><defs><style>.cls-1{fill:#006838;}.cls-2{fill:#8dc63f;}.cls-3{fill:#fff;}</style></defs><title>call</title><path class="cls-1" d="M101.14,129.1a37.41,37.41,0,0,0,9.87-1.29,15,15,0,0,0,8.9-6.86l6.41-10.66a7.4,7.4,0,0,0-2.25-10l-25.49-17a7.45,7.45,0,0,0-10,1.61l-7.43,9.55a3.17,3.17,0,0,1-4.07.86l-1.41-.78C71,92,65.19,88.82,53.45,77.08S38.52,59.5,36,54.82l-.78-1.41A3.19,3.19,0,0,1,36,49.32l9.55-7.42a7.45,7.45,0,0,0,1.62-10l-17-25.49a7.4,7.4,0,0,0-10-2.25L9.55,10.59A15,15,0,0,0,2.69,19.5c-3.84,14-.95,38.13,34.62,73.7C65.6,121.49,86.66,129.1,101.14,129.1ZM6.74,20.61a10.86,10.86,0,0,1,5-6.41L22.37,7.8a3.2,3.2,0,0,1,4.33,1l9.24,13.87,7.75,11.63a3.22,3.22,0,0,1-.7,4.32L33.45,46a7.34,7.34,0,0,0-2,9.43l.76,1.38c2.68,4.92,6,11,18.2,23.21s18.29,15.52,23.21,18.2l1.38.76a7.34,7.34,0,0,0,9.43-2l7.43-9.54a3.22,3.22,0,0,1,4.32-.7l25.5,17a3.21,3.21,0,0,1,1,4.33l-6.4,10.66a10.84,10.84,0,0,1-6.4,5c-12.91,3.54-35.48.6-69.62-33.54S3.2,33.52,6.74,20.61Z"/><path class="cls-1" d="M72.79,24.13a35.73,35.73,0,0,1,35.68,35.69,2.1,2.1,0,0,0,4.2,0A39.93,39.93,0,0,0,72.79,19.93a2.1,2.1,0,0,0,0,4.2Z"/><path class="cls-1" d="M72.79,36.73A23.12,23.12,0,0,1,95.88,59.82a2.1,2.1,0,1,0,4.2,0A27.33,27.33,0,0,0,72.79,32.53a2.1,2.1,0,0,0,0,4.2Z"/><path class="cls-1" d="M72.79,49.32a10.51,10.51,0,0,1,10.49,10.5,2.1,2.1,0,0,0,4.2,0A14.71,14.71,0,0,0,72.79,45.13a2.1,2.1,0,1,0,0,4.19Z"/><path class="cls-2" d="M155.44,91.06c-5.86,0-10.56-1.85-13.95-5.49s-5.07-8.59-5.07-14.83a43.66,43.66,0,0,1,.91-8.44c1.82-8.67,5.28-15.56,10.3-20.48a26.29,26.29,0,0,1,19-7.56c5.81,0,10.5,1.87,14,5.56s5.14,8.69,5.14,15a42.13,42.13,0,0,1-.91,8.29c-1.82,8.63-5.29,15.49-10.34,20.41A26.35,26.35,0,0,1,155.44,91.06ZM165,46.66a11.42,11.42,0,0,0-8.86,4.19c-2.65,3-4.57,7.11-5.7,12.34a35.44,35.44,0,0,0-.82,7.11c0,5.88,2.35,8.5,7.63,8.5a11.38,11.38,0,0,0,8.83-4.15c2.62-2.93,4.5-7.06,5.58-12.29a35.91,35.91,0,0,0,.9-7.12C172.56,49.31,170.23,46.66,165,46.66Z"/><path class="cls-3" d="M166.67,36.26q7.89,0,12.49,4.93t4.6,13.61a39.78,39.78,0,0,1-.87,7.9q-2.61,12.38-9.78,19.37a24.33,24.33,0,0,1-17.67,7q-8,0-12.49-4.85t-4.53-13.47a41,41,0,0,1,.87-8Q141.9,50.24,149,43.25a24.23,24.23,0,0,1,17.64-7M157.25,80.8A13.37,13.37,0,0,0,167.57,76q4.31-4.81,6.05-13.22a37.62,37.62,0,0,0,.94-7.53q0-10.58-9.56-10.58a13.42,13.42,0,0,0-10.35,4.86q-4.35,4.84-6.16,13.25a36.75,36.75,0,0,0-.87,7.53q0,10.5,9.63,10.5m9.42-48.54a28.23,28.23,0,0,0-20.44,8.13c-5.3,5.2-9,12.43-10.85,21.49a45.06,45.06,0,0,0-1,8.86c0,6.76,1.89,12.21,5.6,16.19s9,6.13,15.42,6.13a28.34,28.34,0,0,0,20.47-8.13c5.33-5.2,9-12.4,10.89-21.41a43.73,43.73,0,0,0,1-8.72c0-6.81-1.91-12.31-5.68-16.34s-9-6.2-15.41-6.2ZM157.25,76.8c-3.56,0-5.63-1.06-5.63-6.5a33,33,0,0,1,.78-6.71c1-4.86,2.81-8.71,5.23-11.4A9.4,9.4,0,0,1,165,48.66c3.52,0,5.56,1.08,5.56,6.58A34.14,34.14,0,0,1,169.7,62c-1,4.88-2.73,8.7-5.11,11.37a9.37,9.37,0,0,1-7.34,3.48Z"/><path class="cls-2" d="M202.3,91.06c-5.32,0-9.7-1.17-13-3.47a12,12,0,0,1-5.35-10.41,19.86,19.86,0,0,1,.4-3.62,18.27,18.27,0,0,1,4.53-8.9,17.94,17.94,0,0,1,4.71-3.6,10.42,10.42,0,0,1-1.34-1.87,11.79,11.79,0,0,1-1.49-5.91,16.16,16.16,0,0,1,.33-3.31,18.11,18.11,0,0,1,7.67-11.59c4-2.73,8.94-4.12,14.78-4.12,4.86,0,8.87,1.14,11.94,3.4a11.59,11.59,0,0,1,4.91,9.83A16.23,16.23,0,0,1,230,50.8a17.2,17.2,0,0,1-3.69,7.57,18.45,18.45,0,0,1-3.43,3.18,10.87,10.87,0,0,1,2.18,2.26,11.56,11.56,0,0,1,2.08,6.93,20.54,20.54,0,0,1-.39,3.54,19.45,19.45,0,0,1-8.25,12.57C214.37,89.64,208.9,91.06,202.3,91.06Zm5.28-24.63a11.1,11.1,0,0,0-6.72,2,8.64,8.64,0,0,0-3.49,5.34,9.41,9.41,0,0,0-.24,2.16c0,1.47,0,4.52,6.62,4.52a11.13,11.13,0,0,0,6.92-2A8.91,8.91,0,0,0,213.88,73a8.65,8.65,0,0,0,.18-1.71,4,4,0,0,0-1.51-3.45A8,8,0,0,0,207.58,66.43ZM212.08,45a8.88,8.88,0,0,0-5.75,1.78,7.88,7.88,0,0,0-2.87,4.75,6.33,6.33,0,0,0-.18,1.46,3.4,3.4,0,0,0,1.24,2.86A6.71,6.71,0,0,0,208.74,57a9.39,9.39,0,0,0,5.77-1.74,7.47,7.47,0,0,0,2.93-4.58,11.46,11.46,0,0,0,.17-1.74,3.32,3.32,0,0,0-1.16-2.84A6.89,6.89,0,0,0,212.08,45Z"/><path class="cls-3" d="M213.52,36.26q6.66,0,10.76,3a9.64,9.64,0,0,1,4.09,8.22,14.16,14.16,0,0,1-.29,2.89,15.07,15.07,0,0,1-3.26,6.7,16.6,16.6,0,0,1-6,4.53A9.29,9.29,0,0,1,223.48,65a9.53,9.53,0,0,1,1.7,5.76,18.28,18.28,0,0,1-.36,3.18,17.29,17.29,0,0,1-7.39,11.26q-5.79,3.88-15.13,3.88-7.4,0-11.88-3.12a10,10,0,0,1-4.49-8.76,18.67,18.67,0,0,1,.36-3.26,16.24,16.24,0,0,1,4-7.89,15.87,15.87,0,0,1,7.21-4.42,8.57,8.57,0,0,1-3.55-3.4,9.83,9.83,0,0,1-1.23-4.93,14.33,14.33,0,0,1,.29-2.9A16.1,16.1,0,0,1,199.87,40q5.48-3.77,13.65-3.77M208.74,59a11.44,11.44,0,0,0,7-2.13,9.45,9.45,0,0,0,3.69-5.76,13.26,13.26,0,0,0,.22-2.17,5.34,5.34,0,0,0-1.89-4.38Q215.85,43,212.08,43a10.89,10.89,0,0,0-7,2.21,9.94,9.94,0,0,0-3.59,5.9,8.61,8.61,0,0,0-.22,1.88,5.35,5.35,0,0,0,2,4.42A8.51,8.51,0,0,0,208.74,59m-5,23.47a12.92,12.92,0,0,0,8.14-2.39,10.87,10.87,0,0,0,4-6.74,10.27,10.27,0,0,0,.22-2.1,6,6,0,0,0-2.28-5,9.86,9.86,0,0,0-6.19-1.78,13.2,13.2,0,0,0-7.9,2.39,10.7,10.7,0,0,0-4.27,6.52,11,11,0,0,0-.29,2.61q0,6.51,8.62,6.52m9.77-50.21c-6.25,0-11.61,1.51-15.92,4.47a20.1,20.1,0,0,0-8.49,12.84,17.89,17.89,0,0,0-.37,3.71,13.82,13.82,0,0,0,1.75,6.9l.18.3a19.87,19.87,0,0,0-8.29,12.6s0,.07,0,.11a22,22,0,0,0-.43,4,14.07,14.07,0,0,0,6.21,12c3.66,2.54,8.43,3.83,14.16,3.83,7,0,12.84-1.53,17.36-4.55a21.3,21.3,0,0,0,9.07-13.74l0-.12a22.62,22.62,0,0,0,.42-3.91,13.44,13.44,0,0,0-2.46-8.1,12.14,12.14,0,0,0-.77-1,21.53,21.53,0,0,0,1.93-2A19.15,19.15,0,0,0,232,51.21a18.12,18.12,0,0,0,.38-3.72A13.7,13.7,0,0,0,226.65,36c-3.42-2.51-7.84-3.78-13.13-3.78ZM208.74,55a5.08,5.08,0,0,1-3-.71c-.21-.17-.5-.4-.5-1.3a4.17,4.17,0,0,1,.12-1V52a5.94,5.94,0,0,1,2.16-3.61A7,7,0,0,1,212.08,47c2.15,0,2.91.49,3.1.64s.43.36.43,1.3a9.27,9.27,0,0,1-.14,1.39,5.48,5.48,0,0,1-2.15,3.32A7.43,7.43,0,0,1,208.74,55Zm-5,23.47c-4.62,0-4.62-1.4-4.62-2.52a7.55,7.55,0,0,1,.18-1.69A6.63,6.63,0,0,1,202,70.08a9.19,9.19,0,0,1,5.57-1.65,6.07,6.07,0,0,1,3.73.94c.36.27.74.67.74,1.87a7.82,7.82,0,0,1-2.62,5.68,9.13,9.13,0,0,1-5.69,1.55Z"/><path class="cls-2" d="M238.36,90a2,2,0,0,1-2-2.41l7.71-36.31-8.39,5.25a2,2,0,0,1-1.06.3,2,2,0,0,1-2-2.41l1.81-8.55a2,2,0,0,1,.89-1.27l14.05-8.91a2,2,0,0,1,1.07-.31h7.68a2,2,0,0,1,2,2.41L249.45,88.39a2,2,0,0,1-2,1.58Z"/><path class="cls-3" d="M258.21,37.35h0m0,0L247.49,88h-9.13l8.69-40.92L234.67,54.8l1.81-8.54,14.05-8.91h7.68m0-4h-7.68a4,4,0,0,0-2.14.62l-14,8.91a4,4,0,0,0-1.77,2.55L230.76,54a4,4,0,0,0,6,4.22l4.39-2.74-6.73,31.69A4,4,0,0,0,238.36,92h9.13a4,4,0,0,0,3.91-3.17l10.69-50.46a4.07,4.07,0,0,0,.12-1,4,4,0,0,0-4-4Zm0,8Z"/><path class="cls-2" d="M258.5,71.94a2,2,0,0,1-2-2.43l1.59-7.31a2,2,0,0,1,2-1.58h24a2,2,0,0,1,2,2.43l-1.6,7.31a2,2,0,0,1-1.95,1.58Z"/><path class="cls-3" d="M284.13,62.62l-1.59,7.32h-24l1.59-7.32h24m0-4h-24a4,4,0,0,0-3.91,3.15l-1.59,7.32a4,4,0,0,0,3.91,4.85h24a4,4,0,0,0,3.91-3.15L288,63.48a4,4,0,0,0-3.91-4.86Zm0,8h0Z"/><path class="cls-2" d="M298.83,91.06a35.35,35.35,0,0,1-8.2-.93,21.64,21.64,0,0,1-6.7-2.64,2,2,0,0,1-.88-2.11l1.66-7.75A2,2,0,0,1,286,76.18a2,2,0,0,1,.72-.13,2,2,0,0,1,1.17.38,18,18,0,0,0,5.61,2.63A23.3,23.3,0,0,0,300,80c9.78,0,11.92-4.75,12.67-8.33a11.33,11.33,0,0,0,.25-2.41,4.12,4.12,0,0,0-1.61-3.64c-1.24-.91-3.42-1.39-6.31-1.39A32.55,32.55,0,0,0,294.88,66a1.79,1.79,0,0,1-.68.13,2,2,0,0,1-1.09-.33l-3.34-2.17a2,2,0,0,1-.82-2.24l7.17-24.62A2,2,0,0,1,298,35.35h29.69a2,2,0,0,1,1.55.74,2,2,0,0,1,.41,1.67l-1.6,7.6A2,2,0,0,1,326.14,47H306.27l-2.08,7.1a48.75,48.75,0,0,1,6.16-.38c4.89,0,8.81,1.34,11.65,4a13.83,13.83,0,0,1,4.33,10.55,21.22,21.22,0,0,1-.48,4.32c-1.31,6.09-4.21,10.76-8.62,13.9S306.71,91.06,298.83,91.06Z"/><path class="cls-3" d="M327.73,37.35h0m0,0L326.14,45H304.77l-3.4,11.59a43.5,43.5,0,0,1,9-.87q6.58,0,10.28,3.44a11.85,11.85,0,0,1,3.7,9.09,19.35,19.35,0,0,1-.44,3.91q-1.81,8.4-7.82,12.67t-17.24,4.28a33.63,33.63,0,0,1-7.74-.87A19.79,19.79,0,0,1,285,85.8l1.67-7.75A20,20,0,0,0,292.9,81,25.33,25.33,0,0,0,300,82q12.52,0,14.63-9.92a13.84,13.84,0,0,0,.29-2.82A6.1,6.1,0,0,0,312.49,64q-2.43-1.79-7.5-1.78a32.1,32.1,0,0,0-5.47.51,31.21,31.21,0,0,0-5.32,1.38L290.87,62,298,37.35h29.69m0-4H298a4,4,0,0,0-3.84,2.88L287,60.85a4,4,0,0,0,1.65,4.47L292,67.5a4,4,0,0,0,2.19.65,3.86,3.86,0,0,0,1.37-.25A30.4,30.4,0,0,1,305,66.26c3.4,0,4.72.7,5.14,1,.27.2.78.57.78,2a10.2,10.2,0,0,1-.2,2C310,74.43,308.22,78,300,78a21.57,21.57,0,0,1-6-.89,16.3,16.3,0,0,1-5-2.33,4,4,0,0,0-6.25,2.4L281.09,85a4,4,0,0,0,1.76,4.21,23.86,23.86,0,0,0,7.32,2.91,37.68,37.68,0,0,0,8.66,1c8.3,0,14.88-1.69,19.56-5,4.83-3.44,8-8.51,9.41-15.1a23.56,23.56,0,0,0,.53-4.75,15.74,15.74,0,0,0-5-12c-3.22-3-7.59-4.51-13-4.51-1.16,0-2.3,0-3.41.11l.83-2.83h18.37a4,4,0,0,0,3.91-3.18l1.56-7.44a4,4,0,0,0-3.88-5Zm0,8Z"/><path class="cls-2" d="M340.62,91.06a35.44,35.44,0,0,1-8.21-.93,21.74,21.74,0,0,1-6.7-2.64,2,2,0,0,1-.88-2.11l1.67-7.75a2,2,0,0,1,1.24-1.45,1.94,1.94,0,0,1,.71-.13,2,2,0,0,1,1.17.38,18.15,18.15,0,0,0,5.62,2.63,23.3,23.3,0,0,0,6.54,1c9.78,0,11.91-4.75,12.67-8.33a12,12,0,0,0,.25-2.41,4.12,4.12,0,0,0-1.61-3.64c-1.24-.91-3.43-1.39-6.31-1.39A32.55,32.55,0,0,0,336.67,66a1.79,1.79,0,0,1-.68.13,2,2,0,0,1-1.1-.33l-3.33-2.17a2,2,0,0,1-.83-2.24l7.17-24.62a2,2,0,0,1,1.92-1.44h29.7a2,2,0,0,1,2,2.41l-1.59,7.6a2,2,0,0,1-2,1.59H348.06L346,54.05a48.75,48.75,0,0,1,6.16-.38c4.9,0,8.82,1.34,11.65,4a13.8,13.8,0,0,1,4.33,10.55,21.91,21.91,0,0,1-.47,4.32c-1.32,6.09-4.22,10.76-8.62,13.9S348.49,91.06,340.62,91.06Z"/><path class="cls-3" d="M369.52,37.35h0m0,0-1.6,7.6H346.56l-3.41,11.59a43.64,43.64,0,0,1,9-.87q6.6,0,10.29,3.44a11.85,11.85,0,0,1,3.69,9.09,19.3,19.3,0,0,1-.43,3.91q-1.81,8.4-7.82,12.67t-17.24,4.28a33.72,33.72,0,0,1-7.75-.87,19.83,19.83,0,0,1-6.08-2.39l1.66-7.75A20.07,20.07,0,0,0,334.68,81a25.39,25.39,0,0,0,7.1,1q12.53,0,14.63-9.92a13.84,13.84,0,0,0,.29-2.82A6.08,6.08,0,0,0,354.27,64q-2.43-1.79-7.49-1.78a32,32,0,0,0-5.47.51A31,31,0,0,0,336,64.15L332.65,62l7.17-24.62h29.7m0-4h-29.7A4,4,0,0,0,336,36.23l-7.17,24.62a4,4,0,0,0,1.66,4.47l3.33,2.18a4,4,0,0,0,2.19.65,3.76,3.76,0,0,0,1.36-.25,30.53,30.53,0,0,1,9.43-1.64c3.39,0,4.72.7,5.13,1s.79.57.79,2a9.5,9.5,0,0,1-.21,2C351.83,74.43,350,78,341.78,78a21.51,21.51,0,0,1-6-.89,16.19,16.19,0,0,1-5-2.33,4,4,0,0,0-2.35-.76,3.94,3.94,0,0,0-1.43.27,4,4,0,0,0-2.48,2.89L322.88,85a4,4,0,0,0,1.76,4.21A23.86,23.86,0,0,0,332,92.08a37.62,37.62,0,0,0,8.66,1c8.3,0,14.88-1.69,19.55-5,4.83-3.44,8-8.51,9.42-15.1a23.51,23.51,0,0,0,.52-4.75,15.76,15.76,0,0,0-5-12c-3.22-3-7.6-4.51-13-4.51-1.16,0-2.29,0-3.41.11l.83-2.83h18.37a4,4,0,0,0,3.92-3.18l1.56-7.44a4,4,0,0,0-3.88-5Zm0,8Z"/><path class="cls-2" d="M383.71,91.06a50.4,50.4,0,0,1-8.86-.76,24.64,24.64,0,0,1-7.3-2.38,2,2,0,0,1-1-2.16l1.45-7a2,2,0,0,1,1.09-1.39,1.88,1.88,0,0,1,.87-.2,2,2,0,0,1,.89.21,29.11,29.11,0,0,0,13.09,2.9c3.71,0,6.63-.64,8.69-1.91a7.25,7.25,0,0,0,3.47-5,9,9,0,0,0,.18-1.73A2.58,2.58,0,0,0,394.69,69c-1-.51-3.13-1.13-7.29-1.13h-6.3a2,2,0,0,1-2-2.42l1.52-7.09a2,2,0,0,1,1.95-1.58h6.09a14.93,14.93,0,0,0,7.44-1.66,6.59,6.59,0,0,0,3.28-4.53A8.29,8.29,0,0,0,399.6,49c0-1.18,0-3.94-6.62-3.94a27.34,27.34,0,0,0-7.05.87,31.71,31.71,0,0,0-7,2.93A2,2,0,0,1,376,46.71l1.52-7.1a2,2,0,0,1,1-1.36,36.91,36.91,0,0,1,17.07-4c5.21,0,9.41,1.2,12.48,3.57a12,12,0,0,1,4.87,10,16.3,16.3,0,0,1-.33,3.31,17.16,17.16,0,0,1-3.84,7.69,17.85,17.85,0,0,1-4,3.43,10.66,10.66,0,0,1,2.46,2.37,11.27,11.27,0,0,1,2.21,6.88,13.67,13.67,0,0,1-.35,3.14,19,19,0,0,1-8,12.12C397.08,89.6,391.19,91.06,383.71,91.06Z"/><path class="cls-3" d="M395.66,36.26q7.17,0,11.26,3.15A10,10,0,0,1,411,47.78a13.49,13.49,0,0,1-.29,2.89,15.08,15.08,0,0,1-3.4,6.81,17.56,17.56,0,0,1-6.95,4.78,10.24,10.24,0,0,1,5.36,3.51,9.31,9.31,0,0,1,1.81,5.69,11.84,11.84,0,0,1-.29,2.68,17.11,17.11,0,0,1-7.17,10.93q-5.73,4-16.37,4a47.32,47.32,0,0,1-8.51-.73,22.35,22.35,0,0,1-6.7-2.17l1.45-7a30.89,30.89,0,0,0,14,3.11q6.15,0,9.74-2.21a9.17,9.17,0,0,0,4.38-6.34,11,11,0,0,0,.22-2.1,4.57,4.57,0,0,0-2.68-4.38q-2.68-1.34-8.19-1.34h-6.3l1.52-7.09h6.09a16.8,16.8,0,0,0,8.43-1.92A8.54,8.54,0,0,0,401.38,51a10.05,10.05,0,0,0,.22-2q0-5.94-8.62-5.94a29.51,29.51,0,0,0-7.57.94A33.19,33.19,0,0,0,378,47.13l1.52-7.1a34.78,34.78,0,0,1,16.15-3.77m0-4a38.94,38.94,0,0,0-18,4.21,4,4,0,0,0-2.08,2.72l-1.52,7.1A4,4,0,0,0,378,51.13a3.93,3.93,0,0,0,1.94-.51,29.81,29.81,0,0,1,6.52-2.75,25.51,25.51,0,0,1,6.53-.8c2.77,0,3.85.54,4.19.78.19.13.43.29.43,1.16a7,7,0,0,1-.13,1.2,4.53,4.53,0,0,1-2.31,3.18,13,13,0,0,1-6.45,1.4h-6.09A4,4,0,0,0,378.71,58L377.19,65a4,4,0,0,0,3.91,4.84h6.3c4,0,5.71.58,6.4.92.39.2.47.25.47.8a7,7,0,0,1-.14,1.32,5.23,5.23,0,0,1-2.56,3.72c-1.74,1.07-4.31,1.61-7.64,1.61a27.07,27.07,0,0,1-12.19-2.69A4,4,0,0,0,366,78.33l-1.45,7a4,4,0,0,0,2,4.33,26.68,26.68,0,0,0,7.89,2.59,52.58,52.58,0,0,0,9.22.79c7.9,0,14.17-1.58,18.65-4.7A21,21,0,0,0,411.15,75a15.42,15.42,0,0,0,.39-3.54,13.22,13.22,0,0,0-2.61-8.08,12.28,12.28,0,0,0-.87-1,18.21,18.21,0,0,0,2.3-2.26,19.08,19.08,0,0,0,4.28-8.58,18.12,18.12,0,0,0,.37-3.72,14.08,14.08,0,0,0-5.65-11.54c-3.43-2.64-8-4-13.7-4Z"/><path class="cls-2" d="M413.91,71.94a2,2,0,0,1-2-2.43l1.59-7.31a2,2,0,0,1,1.95-1.58h24.05a2,2,0,0,1,1.95,2.43l-1.59,7.31a2,2,0,0,1-2,1.58Z"/><path class="cls-3" d="M439.55,62.62,438,69.94h-24l1.59-7.32h24.05m0-4H415.5a4,4,0,0,0-3.91,3.15L410,69.09a4,4,0,0,0,3.91,4.85h24a4,4,0,0,0,3.91-3.15l1.59-7.31a4,4,0,0,0-3.9-4.86Zm0,8Z"/><path class="cls-2" d="M445.48,90a2,2,0,0,1-1.66-3.11L470.36,47h-22a2,2,0,0,1-1.55-.73,2,2,0,0,1-.41-1.68l1.59-7.6a2,2,0,0,1,2-1.59H485.1a2,2,0,0,1,1.95,2.42l-1.37,6.37a2.11,2.11,0,0,1-.29.69L456.06,89.08a2,2,0,0,1-1.67.89Z"/><path class="cls-3" d="M485.1,37.35h0m0,0-1.38,6.37L454.39,88h-8.91l28.61-43H448.38l1.59-7.6H485.1m0-4H450a4,4,0,0,0-3.91,3.18l-1.59,7.6A4,4,0,0,0,448.38,49h18.25L442.15,85.76A4,4,0,0,0,445.48,92h8.91a4,4,0,0,0,3.33-1.79l29.33-44.25a3.81,3.81,0,0,0,.58-1.36L489,38.35a3.66,3.66,0,0,0,.13-1,4,4,0,0,0-4-4Zm0,8Z"/><path class="cls-2" d="M495,91.06a50.4,50.4,0,0,1-8.86-.76,24.64,24.64,0,0,1-7.3-2.38,2,2,0,0,1-1-2.16l1.45-7a2,2,0,0,1,1.09-1.39,1.88,1.88,0,0,1,.87-.2,2,2,0,0,1,.89.21,29.08,29.08,0,0,0,13.09,2.9c3.71,0,6.63-.64,8.69-1.91a7.2,7.2,0,0,0,3.46-5,8.32,8.32,0,0,0,.19-1.73A2.59,2.59,0,0,0,506,69c-1-.51-3.13-1.13-7.29-1.13h-6.3a2,2,0,0,1-2-2.42L492,58.37a2,2,0,0,1,1.95-1.58H500a15,15,0,0,0,7.44-1.66,6.59,6.59,0,0,0,3.28-4.53,8.29,8.29,0,0,0,.17-1.59c0-1.18,0-3.94-6.62-3.94a27.34,27.34,0,0,0-7.05.87,31.51,31.51,0,0,0-7,2.93,2,2,0,0,1-2.93-2.16l1.52-7.1a2,2,0,0,1,1-1.36,36.88,36.88,0,0,1,17.07-4c5.21,0,9.41,1.2,12.48,3.57a12,12,0,0,1,4.87,10,16.3,16.3,0,0,1-.33,3.31,17.16,17.16,0,0,1-3.84,7.69,17.91,17.91,0,0,1-4,3.43,10.51,10.51,0,0,1,2.47,2.37,11.27,11.27,0,0,1,2.21,6.88,13.67,13.67,0,0,1-.35,3.14,19.08,19.08,0,0,1-8,12.12C508.39,89.6,502.5,91.06,495,91.06Z"/><path class="cls-3" d="M507,36.26q7.17,0,11.26,3.15a10,10,0,0,1,4.09,8.37,14.16,14.16,0,0,1-.29,2.89,15.08,15.08,0,0,1-3.4,6.81,17.56,17.56,0,0,1-6.95,4.78A10.24,10.24,0,0,1,517,65.77a9.31,9.31,0,0,1,1.81,5.69,11.84,11.84,0,0,1-.29,2.68,17.11,17.11,0,0,1-7.17,10.93q-5.73,4-16.37,4a47.32,47.32,0,0,1-8.51-.73,22.35,22.35,0,0,1-6.7-2.17l1.45-7a30.89,30.89,0,0,0,14,3.11q6.15,0,9.74-2.21a9.17,9.17,0,0,0,4.38-6.34,11,11,0,0,0,.22-2.1,4.57,4.57,0,0,0-2.68-4.38q-2.68-1.34-8.19-1.34h-6.3l1.52-7.09H500a16.8,16.8,0,0,0,8.43-1.92A8.54,8.54,0,0,0,512.69,51a10.05,10.05,0,0,0,.22-2q0-5.94-8.62-5.94a29.51,29.51,0,0,0-7.57.94,33.19,33.19,0,0,0-7.42,3.12l1.52-7.1A34.75,34.75,0,0,1,507,36.26m0-4a38.94,38.94,0,0,0-18,4.21,4,4,0,0,0-2.08,2.72l-1.52,7.1a4,4,0,0,0,5.85,4.33,29.81,29.81,0,0,1,6.52-2.75,25.45,25.45,0,0,1,6.53-.8c2.76,0,3.85.54,4.19.78.19.13.43.29.43,1.16a7,7,0,0,1-.13,1.2,4.53,4.53,0,0,1-2.31,3.18,13,13,0,0,1-6.45,1.4h-6.09A4,4,0,0,0,490,58L488.5,65a4,4,0,0,0,3.91,4.84h6.3c4,0,5.71.58,6.4.92.39.2.47.25.47.8a7,7,0,0,1-.14,1.32,5.23,5.23,0,0,1-2.56,3.72c-1.74,1.07-4.31,1.61-7.64,1.61a27.07,27.07,0,0,1-12.19-2.69,4,4,0,0,0-1.79-.42,4,4,0,0,0-3.92,3.19l-1.45,7a4,4,0,0,0,2,4.33,26.68,26.68,0,0,0,7.89,2.59,52.58,52.58,0,0,0,9.22.79c7.9,0,14.17-1.58,18.65-4.7A21,21,0,0,0,522.46,75a15.42,15.42,0,0,0,.39-3.54,13.22,13.22,0,0,0-2.61-8.08,12.28,12.28,0,0,0-.87-1,18.9,18.9,0,0,0,2.3-2.26A19.28,19.28,0,0,0,526,51.5a18.12,18.12,0,0,0,.37-3.72,14.08,14.08,0,0,0-5.65-11.54c-3.43-2.64-8-4-13.7-4Z"/><path class="cls-2" d="M535.65,91.06a27.48,27.48,0,0,1-8.2-1.11,2,2,0,0,1-1.36-2.33l1.59-7.38a2,2,0,0,1,1.1-1.39,2,2,0,0,1,.85-.19,2,2,0,0,1,.92.22A13.14,13.14,0,0,0,536.44,80a16.14,16.14,0,0,0,10.85-3.77,20,20,0,0,0,4.59-5.74A24.87,24.87,0,0,1,542,72.37a16.17,16.17,0,0,1-11.15-4,13.93,13.93,0,0,1-4.54-10.84,20.28,20.28,0,0,1,.48-4.25,23.79,23.79,0,0,1,8.1-13.8c4.19-3.47,9.84-5.24,16.81-5.24a19.07,19.07,0,0,1,9,2.12,15.52,15.52,0,0,1,6.43,6.34,19.8,19.8,0,0,1,2.28,9.69,33.63,33.63,0,0,1-.69,6.41,53.19,53.19,0,0,1-6.76,17.34,32.47,32.47,0,0,1-11.39,11.09A29.88,29.88,0,0,1,535.65,91.06ZM550.2,45a10,10,0,0,0-6.8,2.26,11.56,11.56,0,0,0-3.63,6.47,16.19,16.19,0,0,0-.31,2.74,4.86,4.86,0,0,0,1.41,3.81c1,.9,2.67,1.36,5,1.36a9.93,9.93,0,0,0,6.57-2.47,10.76,10.76,0,0,0,3.78-6.3,10.12,10.12,0,0,0,.25-2.34A5.52,5.52,0,0,0,555,46.46C554.05,45.49,552.43,45,550.2,45Z"/><path class="cls-3" d="M551.65,36.26a17.08,17.08,0,0,1,8.08,1.89,13.43,13.43,0,0,1,5.61,5.54,17.7,17.7,0,0,1,2,8.72,31.08,31.08,0,0,1-.65,6,50.82,50.82,0,0,1-6.49,16.66,30.36,30.36,0,0,1-10.68,10.43,27.78,27.78,0,0,1-13.9,3.55A25.58,25.58,0,0,1,528,88l1.59-7.38a15,15,0,0,0,6.81,1.3,18.18,18.18,0,0,0,12.13-4.24q5-4.23,7.57-12.27A21,21,0,0,1,542,70.37a14.2,14.2,0,0,1-9.82-3.47,11.94,11.94,0,0,1-3.87-9.35,18.27,18.27,0,0,1,.43-3.83A21.76,21.76,0,0,1,536.12,41q5.76-4.77,15.53-4.78m-5.79,27.38a12,12,0,0,0,7.86-2.94,12.81,12.81,0,0,0,4.45-7.42,12.22,12.22,0,0,0,.29-2.75,7.48,7.48,0,0,0-2-5.47q-2-2.06-6.23-2.06a12,12,0,0,0-8.11,2.75,13.63,13.63,0,0,0-4.27,7.53,18.48,18.48,0,0,0-.36,3.19,6.75,6.75,0,0,0,2.06,5.28q2.07,1.89,6.34,1.89m5.79-31.38c-7.44,0-13.53,1.92-18.09,5.71a25.77,25.77,0,0,0-8.78,14.92,22.1,22.1,0,0,0-.52,4.66,15.85,15.85,0,0,0,5.2,12.33A18.11,18.11,0,0,0,542,74.37a29.89,29.89,0,0,0,4.79-.37c-.25.23-.49.45-.74.66a14.22,14.22,0,0,1-9.56,3.3,11.11,11.11,0,0,1-5-.86,4,4,0,0,0-3.53-.06,4,4,0,0,0-2.21,2.77l-1.59,7.39a4,4,0,0,0,2.72,4.66,29.54,29.54,0,0,0,8.8,1.2A31.85,31.85,0,0,0,551.51,89a34.45,34.45,0,0,0,12.1-11.76,55,55,0,0,0,7-18v0a35.29,35.29,0,0,0,.73-6.8,21.74,21.74,0,0,0-2.53-10.66,17.44,17.44,0,0,0-7.25-7.14,21.1,21.1,0,0,0-9.94-2.35Zm-9.91,21.83a9.6,9.6,0,0,1,3-5.31A8,8,0,0,1,550.2,47a5,5,0,0,1,3.38.87,3.44,3.44,0,0,1,.88,2.66,7.71,7.71,0,0,1-.19,1.84.29.29,0,0,1,0,.09,8.81,8.81,0,0,1-3.1,5.17,8,8,0,0,1-5.29,2,5.92,5.92,0,0,1-3.64-.84c-.21-.19-.76-.69-.76-2.33a14,14,0,0,1,.28-2.38Z"/><path class="cls-2" d="M580.47,91.06A27.46,27.46,0,0,1,572.28,90a2,2,0,0,1-1.36-2.33l1.59-7.38a2,2,0,0,1,1.1-1.39,2,2,0,0,1,.85-.19,2,2,0,0,1,.92.22A13.11,13.11,0,0,0,581.27,80a16.11,16.11,0,0,0,10.84-3.77,20,20,0,0,0,4.6-5.74,25,25,0,0,1-9.94,1.92,16.14,16.14,0,0,1-11.14-4,13.9,13.9,0,0,1-4.54-10.84,20.28,20.28,0,0,1,.48-4.25,23.79,23.79,0,0,1,8.1-13.8c4.19-3.47,9.84-5.24,16.81-5.24a19.06,19.06,0,0,1,9,2.12,15.49,15.49,0,0,1,6.44,6.34,19.8,19.8,0,0,1,2.27,9.69,32.84,32.84,0,0,1-.69,6.41,53,53,0,0,1-6.75,17.34,32.47,32.47,0,0,1-11.39,11.09A29.89,29.89,0,0,1,580.47,91.06ZM595,45a10,10,0,0,0-6.8,2.26,11.56,11.56,0,0,0-3.63,6.47,16.19,16.19,0,0,0-.31,2.74,4.86,4.86,0,0,0,1.41,3.81c1,.9,2.66,1.36,5,1.36a9.93,9.93,0,0,0,6.57-2.47,10.76,10.76,0,0,0,3.78-6.3,10.12,10.12,0,0,0,.25-2.34,5.52,5.52,0,0,0-1.46-4.07C598.88,45.49,597.26,45,595,45Z"/><path class="cls-3" d="M596.48,36.26a17,17,0,0,1,8.07,1.89,13.51,13.51,0,0,1,5.62,5.54,17.7,17.7,0,0,1,2,8.72,30.31,30.31,0,0,1-.65,6,50.59,50.59,0,0,1-6.48,16.66,30.36,30.36,0,0,1-10.68,10.43,27.82,27.82,0,0,1-13.91,3.55,25.51,25.51,0,0,1-7.6-1l1.59-7.38a15,15,0,0,0,6.81,1.3,18.18,18.18,0,0,0,12.13-4.24q5-4.23,7.57-12.27a21,21,0,0,1-14.2,4.92A14.18,14.18,0,0,1,577,66.9a11.94,11.94,0,0,1-3.87-9.35,18.27,18.27,0,0,1,.43-3.83A21.76,21.76,0,0,1,581,41q5.74-4.77,15.53-4.78m-5.79,27.38a11.92,11.92,0,0,0,7.85-2.94A12.83,12.83,0,0,0,603,53.28a12.22,12.22,0,0,0,.29-2.75,7.48,7.48,0,0,0-2-5.47Q599.23,43,595,43a12,12,0,0,0-8.11,2.75,13.63,13.63,0,0,0-4.27,7.53,17.54,17.54,0,0,0-.36,3.19,6.75,6.75,0,0,0,2.06,5.28c1.37,1.26,3.49,1.89,6.34,1.89m5.79-31.38C589,32.26,583,34.18,578.39,38a25.72,25.72,0,0,0-8.78,14.92,22.1,22.1,0,0,0-.52,4.66,15.85,15.85,0,0,0,5.2,12.33,18.11,18.11,0,0,0,12.48,4.49,29.71,29.71,0,0,0,4.79-.37c-.24.23-.48.45-.73.66a14.24,14.24,0,0,1-9.56,3.3,11.11,11.11,0,0,1-5-.86,3.92,3.92,0,0,0-1.83-.44,4,4,0,0,0-1.71.38,4,4,0,0,0-2.2,2.77L569,87.2a4,4,0,0,0,2.72,4.66,29.52,29.52,0,0,0,8.79,1.2A31.86,31.86,0,0,0,596.34,89a34.45,34.45,0,0,0,12.1-11.76,54.72,54.72,0,0,0,7-18l0,0a35.24,35.24,0,0,0,.72-6.8,21.84,21.84,0,0,0-2.52-10.66,17.52,17.52,0,0,0-7.26-7.14,21.06,21.06,0,0,0-9.93-2.35Zm-9.92,21.83a9.61,9.61,0,0,1,3-5.31A8,8,0,0,1,595,47a5,5,0,0,1,3.38.87,3.48,3.48,0,0,1,.88,2.66,7.71,7.71,0,0,1-.19,1.84.29.29,0,0,1,0,.09,8.81,8.81,0,0,1-3.1,5.17,8,8,0,0,1-5.29,2,5.92,5.92,0,0,1-3.64-.84c-.21-.19-.76-.69-.76-2.33a13.55,13.55,0,0,1,.27-2.38Z"/></svg>