<svg id="Layer_1" data-name="Layer 1" xmlns="http://www.w3.org/2000/svg" viewBox="0 0 417.55 120"><defs><style>.cls-1{fill:#00b900;}.cls-2{fill:#fff;}</style></defs><title>line</title><g id="FULL_COLOR_ICON" data-name="FULL COLOR ICON"><rect class="cls-1" width="120" height="120" rx="26"/><g id="TYPE_A" data-name="TYPE A"><path class="cls-2" d="M103.5,54.72c0-19.55-19.6-35.45-43.7-35.45S16.11,35.17,16.11,54.72c0,17.53,15.55,32.21,36.54,35,1.43.31,3.36.94,3.85,2.16a8.93,8.93,0,0,1,.14,4L56,99.55c-.19,1.1-.88,4.32,3.78,2.35S85,87.09,94.13,76.54h0c6.33-7,9.37-14,9.37-21.82"/><path class="cls-1" d="M50.93,45.28H47.86a.85.85,0,0,0-.85.85v19a.85.85,0,0,0,.85.85h3.07a.85.85,0,0,0,.85-.85v-19a.85.85,0,0,0-.85-.85"/><path class="cls-1" d="M72,45.28H69a.85.85,0,0,0-.85.85V57.44L59.38,45.65l-.06-.08h0l-.05-.05h0l0,0,0,0,0,0,0,0,0,0h0l-.05,0h0l-.05,0h-3.3a.85.85,0,0,0-.85.85v19a.85.85,0,0,0,.85.85h3.06a.86.86,0,0,0,.86-.85V53.86l8.73,11.79a.63.63,0,0,0,.22.21h0l.05,0h0l0,0,0,0h0l.06,0h0A.78.78,0,0,0,69,66H72a.85.85,0,0,0,.85-.85v-19a.85.85,0,0,0-.85-.85"/><path class="cls-1" d="M43.54,61.25H35.21V46.13a.85.85,0,0,0-.85-.85H31.3a.85.85,0,0,0-.85.85v19h0a.87.87,0,0,0,.23.59h0v0a.87.87,0,0,0,.59.23H43.54a.85.85,0,0,0,.85-.85V62.1a.85.85,0,0,0-.85-.85"/><path class="cls-1" d="M89,50a.85.85,0,0,0,.85-.85V46.13a.85.85,0,0,0-.85-.85H76.7a.85.85,0,0,0-.59.24h0v0a.83.83,0,0,0-.24.59h0v19h0a.83.83,0,0,0,.24.59h0a.85.85,0,0,0,.59.24H89a.85.85,0,0,0,.85-.85V62.1a.85.85,0,0,0-.85-.85H80.62V58H89a.85.85,0,0,0,.85-.85V54.11a.85.85,0,0,0-.85-.85H80.62V50Z"/></g></g><path class="cls-1" d="M143,90c-5.46,0-9.65-1.55-12.43-4.59s-4.14-7-4.14-11.91V49.8a1.5,1.5,0,0,1,1.5-1.5h9.84a1.5,1.5,0,0,1,1.5,1.5V72.54c0,4.63,1.9,6.7,6.16,6.7A11.75,11.75,0,0,0,151,77.82a11.9,11.9,0,0,0,4.21-3.93V49.8a1.51,1.51,0,0,1,1.5-1.5h9.85a1.5,1.5,0,0,1,1.5,1.5V87.3a1.5,1.5,0,0,1-1.5,1.5h-9.53a1.5,1.5,0,0,1-1.5-1.5V85.81a17.31,17.31,0,0,1-4.26,2.53A21.49,21.49,0,0,1,143,90Z"/><path class="cls-2" d="M166.6,49.81V87.3h-9.53V82.23A16.18,16.18,0,0,1,150.74,87,19.94,19.94,0,0,1,143,88.48q-7.58,0-11.32-4.11t-3.75-10.89V49.81h9.84V72.54q0,8.2,7.66,8.2a13.1,13.1,0,0,0,6.32-1.6,13.55,13.55,0,0,0,5-4.8V49.81h9.85m0-3h-9.85a3,3,0,0,0-3,3V73.42a10,10,0,0,1-8.32,4.32c-3,0-4.66-.85-4.66-5.2V49.81a3,3,0,0,0-3-3h-9.84a3,3,0,0,0-3,3V73.48c0,5.28,1.52,9.63,4.53,12.92s7.64,5.08,13.54,5.08a23,23,0,0,0,8.89-1.76,18.39,18.39,0,0,0,2.43-1.22,3,3,0,0,0,2.75,1.8h9.53a3,3,0,0,0,3-3V49.81a3,3,0,0,0-3-3Z"/><path class="cls-1" d="M204.8,88.8a1.5,1.5,0,0,1-1.5-1.5V64.57c0-4.64-1.9-6.7-6.16-6.7a11.75,11.75,0,0,0-5.61,1.42,11.9,11.9,0,0,0-4.21,3.93V87.3a1.5,1.5,0,0,1-1.5,1.5H176a1.5,1.5,0,0,1-1.5-1.5V49.8a1.5,1.5,0,0,1,1.5-1.5h9.53a1.5,1.5,0,0,1,1.5,1.5v1.5a17.31,17.31,0,0,1,4.26-2.53,21.45,21.45,0,0,1,8.3-1.64c5.47,0,9.65,1.55,12.44,4.59s4.14,7,4.14,11.91V87.3a1.5,1.5,0,0,1-1.5,1.5Z"/><path class="cls-2" d="M199.56,48.63q7.58,0,11.33,4.1t3.75,10.9V87.3H204.8V64.57q0-8.2-7.66-8.2a13.11,13.11,0,0,0-6.33,1.6,13.62,13.62,0,0,0-5,4.8V87.3H176V49.81h9.53v5.07a16.18,16.18,0,0,1,6.33-4.72,19.92,19.92,0,0,1,7.73-1.53m0-3a22.91,22.91,0,0,0-8.88,1.76,18.33,18.33,0,0,0-2.43,1.21,3,3,0,0,0-2.75-1.79H176a3,3,0,0,0-3,3V87.3a3,3,0,0,0,3,3h9.84a3,3,0,0,0,3-3V63.69a10.09,10.09,0,0,1,8.33-4.32c3,0,4.66.85,4.66,5.2V87.3a3,3,0,0,0,3,3h9.84a3,3,0,0,0,3-3V63.63c0-5.28-1.52-9.63-4.53-12.92s-7.64-5.08-13.55-5.08Z"/><path class="cls-1" d="M252.45,88.8a1.5,1.5,0,0,1-1.5-1.5V64.57c0-4.64-1.9-6.7-6.15-6.7a11.76,11.76,0,0,0-5.62,1.42A12,12,0,0,0,235,63.22V87.3a1.5,1.5,0,0,1-1.5,1.5h-9.84a1.5,1.5,0,0,1-1.5-1.5V49.8a1.5,1.5,0,0,1,1.5-1.5h9.53a1.51,1.51,0,0,1,1.5,1.5v1.5a17.25,17.25,0,0,1,4.25-2.53,21.49,21.49,0,0,1,8.31-1.64c5.47,0,9.65,1.55,12.43,4.59s4.15,7,4.15,11.91V87.3a1.5,1.5,0,0,1-1.5,1.5Z"/><path class="cls-2" d="M247.22,48.63q7.58,0,11.33,4.1t3.75,10.9V87.3h-9.85V64.57q0-8.2-7.65-8.2a13.11,13.11,0,0,0-6.33,1.6,13.55,13.55,0,0,0-5,4.8V87.3h-9.84V49.81h9.53v5.07a16.18,16.18,0,0,1,6.33-4.72,19.85,19.85,0,0,1,7.73-1.53m0-3a23,23,0,0,0-8.89,1.76,17.63,17.63,0,0,0-2.42,1.21,3,3,0,0,0-2.75-1.79h-9.53a3,3,0,0,0-3,3V87.3a3,3,0,0,0,3,3h9.84a3,3,0,0,0,3-3V63.69a10,10,0,0,1,8.33-4.32c2.95,0,4.65.85,4.65,5.2V87.3a3,3,0,0,0,3,3h9.85a3,3,0,0,0,3-3V63.63c0-5.28-1.53-9.63-4.54-12.92s-7.64-5.08-13.54-5.08Z"/><path class="cls-1" d="M281.28,88.8a1.5,1.5,0,0,1-1.5-1.5V46.1l-9.18,6.64a1.5,1.5,0,0,1-2.38-1.22V42.3a1.51,1.51,0,0,1,.61-1.21L282,31.49a1.45,1.45,0,0,1,.88-.29h8.28a1.5,1.5,0,0,1,1.5,1.5V87.3a1.5,1.5,0,0,1-1.5,1.5Z"/><path class="cls-2" d="M291.12,32.7V87.3h-9.84V43.16l-11.56,8.36V42.31l13.12-9.61h8.28m0-3h-8.28a3,3,0,0,0-1.77.58l-13.13,9.6a3,3,0,0,0-1.22,2.43v9.21A3,3,0,0,0,271.47,54L278.28,49V87.3a3,3,0,0,0,3,3h9.84a3,3,0,0,0,3-3V32.7a3,3,0,0,0-3-3Z"/><path class="cls-1" d="M314.56,90a31.21,31.21,0,0,1-8.87-1.16,1.5,1.5,0,0,1-1.07-1.44v-8a1.51,1.51,0,0,1,1.5-1.5,1.52,1.52,0,0,1,.63.14,16.93,16.93,0,0,0,7,1.27c4.72,0,8.33-1.35,11-4.12a17.41,17.41,0,0,0,4.28-8.51,21.83,21.83,0,0,1-12,3.13,21.35,21.35,0,0,1-10.12-2.36,17.26,17.26,0,0,1-7-6.84,20.53,20.53,0,0,1-2.51-10.27,20.89,20.89,0,0,1,2.62-10.42,18.3,18.3,0,0,1,7.77-7.32A25.87,25.87,0,0,1,319.72,30a23,23,0,0,1,11.69,3,21.12,21.12,0,0,1,8.19,8.81,29.47,29.47,0,0,1,2.94,13.58c0,7.2-1.1,13.45-3.28,18.56a25.74,25.74,0,0,1-9.71,11.92A27.28,27.28,0,0,1,314.56,90Zm5.16-49.69a9.21,9.21,0,0,0-6.94,2.6,9.41,9.41,0,0,0-2.58,7A9.5,9.5,0,0,0,312.78,57a9.21,9.21,0,0,0,6.94,2.6,9,9,0,0,0,6.74-2.71,9.42,9.42,0,0,0,2.69-7A10.05,10.05,0,0,0,328,45.09a9.17,9.17,0,0,0-3.3-3.5A9.27,9.27,0,0,0,319.72,40.29Z"/><path class="cls-2" d="M319.72,31.52a21.32,21.32,0,0,1,10.93,2.82,19.54,19.54,0,0,1,7.62,8.2A27.84,27.84,0,0,1,341,55.43q0,10.54-3.16,18a24.15,24.15,0,0,1-9.14,11.25,25.73,25.73,0,0,1-14.18,3.83,29.58,29.58,0,0,1-8.44-1.1v-8a18.23,18.23,0,0,0,7.66,1.41q7.65,0,12.11-4.57T331.2,63q-5,5.31-14.14,5.31a19.66,19.66,0,0,1-9.41-2.19,15.68,15.68,0,0,1-6.41-6.25,18.92,18.92,0,0,1-2.31-9.53,19.37,19.37,0,0,1,2.43-9.69A16.64,16.64,0,0,1,308.5,34a24.27,24.27,0,0,1,11.22-2.43m0,29.53a10.52,10.52,0,0,0,7.81-3.16,10.94,10.94,0,0,0,3.12-8,11.41,11.41,0,0,0-1.36-5.5,11.41,11.41,0,0,0-17.58-2.54,10.93,10.93,0,0,0-3,8,11,11,0,0,0,3,8.13,10.73,10.73,0,0,0,8,3m0-32.53a27.28,27.28,0,0,0-12.58,2.76,19.73,19.73,0,0,0-8.4,7.91,22.48,22.48,0,0,0-2.81,11.16,22,22,0,0,0,2.7,11,18.72,18.72,0,0,0,7.6,7.42,22.69,22.69,0,0,0,10.83,2.54,25.7,25.7,0,0,0,9.55-1.67,14.24,14.24,0,0,1-2.87,4.51c-2.4,2.46-5.66,3.66-10,3.66a15.45,15.45,0,0,1-6.4-1.13,3,3,0,0,0-2.87.2,3,3,0,0,0-1.39,2.52v8a3,3,0,0,0,2.15,2.88,32.62,32.62,0,0,0,9.29,1.22,28.74,28.74,0,0,0,15.8-4.31,27.19,27.19,0,0,0,10.28-12.6c2.26-5.29,3.4-11.73,3.4-19.14a30.91,30.91,0,0,0-3.1-14.26,22.59,22.59,0,0,0-8.78-9.43,24.51,24.51,0,0,0-12.44-3.22Zm0,29.53a7.81,7.81,0,0,1-5.88-2.15,8.13,8.13,0,0,1-2.14-6,8,8,0,0,1,2.14-5.94,7.81,7.81,0,0,1,5.88-2.15,7.71,7.71,0,0,1,4.16,1.07,7.6,7.6,0,0,1,2.77,2.94,8.47,8.47,0,0,1,1,4.08,8,8,0,0,1-2.26,5.9,7.56,7.56,0,0,1-5.67,2.27Z"/><path class="cls-1" d="M353.23,88.8a1.48,1.48,0,0,1-1.26-.68,1.51,1.51,0,0,1-.11-1.44L371.92,42.4H346.51a1.5,1.5,0,0,1-1.5-1.5V32.7a1.5,1.5,0,0,1,1.5-1.5H384.4a1.5,1.5,0,0,1,1.5,1.5v6.87a1.5,1.5,0,0,1-.13.62L364.21,87.92a1.5,1.5,0,0,1-1.37.88Z"/><path class="cls-2" d="M384.4,32.7v6.87L362.84,87.3h-9.61l21-46.4H346.51V32.7H384.4m0-3H346.51a3,3,0,0,0-3,3v8.2a3,3,0,0,0,3,3h23.08L350.5,86.07a3,3,0,0,0,2.73,4.23h9.61a3,3,0,0,0,2.73-1.76l21.56-47.73a3,3,0,0,0,.27-1.24V32.7a3,3,0,0,0-3-3Z"/><path class="cls-1" d="M401.43,88.8a1.5,1.5,0,0,1-1.5-1.5V46.1l-9.18,6.64a1.52,1.52,0,0,1-1.56.12,1.51,1.51,0,0,1-.82-1.34V42.3a1.53,1.53,0,0,1,.61-1.21l13.13-9.6a1.5,1.5,0,0,1,.88-.29h8.29a1.5,1.5,0,0,1,1.5,1.5V87.3a1.5,1.5,0,0,1-1.5,1.5Z"/><path class="cls-2" d="M411.28,32.7V87.3h-9.85V43.16l-11.56,8.36V42.31L403,32.7h8.29m0-3H403a3,3,0,0,0-1.77.58l-13.12,9.6a3,3,0,0,0-1.23,2.43v9.21A3,3,0,0,0,391.63,54l6.8-4.92V87.3a3,3,0,0,0,3,3h9.85a3,3,0,0,0,3-3V32.7a3,3,0,0,0-3-3Z"/></svg>